<?xml version="1.0" standalone="no"?>
<!DOCTYPE svg PUBLIC "-//W3C//DTD SVG 20010904//EN"
 "http://www.w3.org/TR/2001/REC-SVG-20010904/DTD/svg10.dtd">
<svg version="1.0" xmlns="http://www.w3.org/2000/svg"
 width="200.000000pt" height="200.000000pt" viewBox="0 0 200.000000 200.000000"
 preserveAspectRatio="xMidYMid meet">
<metadata>
Created by potrace 1.14, written by Peter Selinger 2001-2017
</metadata>
<g transform="translate(0.000000,200.000000) scale(0.100000,-0.100000)"
fill="#000000" stroke="none">
<path d="M0 1000 l0 -1000 1000 0 1000 0 0 1000 0 1000 -1000 0 -1000 0 0
-1000z m1580 0 l0 -300 -35 0 -35 0 0 300 0 300 35 0 35 0 0 -300z m-1060 165
c0 -45 0 -45 36 -45 34 0 35 -1 32 -32 -3 -29 -7 -33 -35 -36 l-33 -3 0 -90
c0 -93 0 -93 48 -92 7 1 12 -12 12 -33 0 -34 0 -34 -46 -34 -25 0 -54 4 -64
10 -27 15 -40 64 -40 156 0 77 -2 84 -20 84 -16 0 -20 7 -20 35 0 28 4 35 20
35 17 0 20 7 20 45 l0 45 45 0 45 0 0 -45z m850 0 c0 -45 0 -45 35 -45 33 0
35 -2 35 -35 0 -33 -2 -35 -35 -35 l-36 0 3 -87 3 -87 33 -10 c26 -7 32 -14
32 -37 0 -28 -1 -29 -52 -29 -39 0 -57 5 -75 22 -21 20 -23 30 -23 125 l0 103
-25 0 c-22 0 -25 4 -25 35 0 31 3 35 25 35 23 0 25 4 25 45 l0 45 40 0 40 0 0
-45z m-530 -53 c44 -23 70 -73 70 -134 l0 -48 -105 0 c-98 0 -105 -1 -105 -20
0 -53 77 -78 118 -39 16 14 33 19 57 17 33 -3 34 -4 22 -28 -44 -89 -204 -94
-257 -8 -27 45 -28 158 -2 207 35 66 130 91 202 53z m207 -37 c15 -25 30 -45
33 -45 3 1 18 21 33 45 26 41 32 45 68 45 21 0 39 -3 39 -7 0 -3 -22 -39 -49
-79 l-50 -73 49 -70 c26 -38 51 -75 55 -80 4 -7 -10 -11 -38 -11 -43 0 -47 3
-74 45 -15 25 -31 45 -35 45 -3 0 -19 -20 -35 -45 -26 -42 -31 -45 -72 -45
l-43 0 17 28 c10 15 33 48 51 75 19 26 34 52 34 57 0 6 -23 44 -50 85 l-51 75
45 0 c42 0 46 -3 73 -45z"/>
<path d="M720 1050 c-11 -11 -20 -29 -20 -40 0 -18 7 -20 65 -20 62 0 65 1 65
24 0 50 -73 73 -110 36z"/>
</g>
</svg>
